<svg xmlns="http://www.w3.org/2000/svg" width="31.827" height="37.62" viewBox="0 0 31.827 37.62">
    <g id="XMLID_3497_" transform="translate(-39.425 0)">
        <g id="XMLID_3504_" transform="translate(39.425 0)">
            <path id="XMLID_4287_"
                d="M55.338,37.62A15.944,15.944,0,0,1,41.716,13.443a.735.735,0,0,1,1.363.381c0,1.6,1.311,3.47,3,3.47a3.021,3.021,0,0,0,2.564-4.6,5.406,5.406,0,0,1,4.31-8.273,2.2,2.2,0,0,0,1.754-3.3.735.735,0,0,1,.744-1.1A5.514,5.514,0,0,1,59.136,8.6l-.008.012a3.277,3.277,0,1,0,5.926,2.055.735.735,0,0,1,1.24-.506,15.921,15.921,0,0,1,2.393,20.21.735.735,0,0,1-1.232-.8,14.456,14.456,0,0,0-1.228-17.36,4.749,4.749,0,1,1-8.3-4.452,4.037,4.037,0,0,0,.72-2.3,4.079,4.079,0,0,0-2.189-3.589q.017.18.017.363a3.661,3.661,0,0,1-3.443,3.653h-.008a3.937,3.937,0,0,0-3.139,6.024,4.49,4.49,0,0,1-3.809,6.855,4.213,4.213,0,0,1-3.2-1.584,5.386,5.386,0,0,1-.795-1.248,14.477,14.477,0,0,0,13.256,20.22,14.407,14.407,0,0,0,7.618-2.17.735.735,0,0,1,.776,1.248A15.874,15.874,0,0,1,55.338,37.62Z"
                transform="translate(-39.425 0)" fill="#ff7642" />
        </g>
        <g id="XMLID_3499_" transform="translate(49.401 19.885)">
            <g id="XMLID_3500_" transform="translate(0)">
                <g id="XMLID_3503_" transform="translate(3.169 1.028)">
                    <path id="XMLID_4286_"
                        d="M219.056,294.4a.735.735,0,0,1-.66-1.056l4.043-8.325a.735.735,0,0,1,1.322.642l-4.043,8.325A.735.735,0,0,1,219.056,294.4Z"
                        transform="translate(-218.322 -284.609)" fill="#ff7642" />
                </g>
                <g id="XMLID_3502_">
                    <path id="XMLID_4283_"
                        d="M177.55,275.328a2.352,2.352,0,1,1,2.352-2.352A2.354,2.354,0,0,1,177.55,275.328Zm0-3.234a.882.882,0,1,0,.882.882A.883.883,0,0,0,177.55,272.094Z"
                        transform="translate(-175.198 -270.625)" fill="#ff7642" />
                </g>
                <g id="XMLID_3501_" transform="translate(7.171 7.171)">
                    <path id="XMLID_4280_"
                        d="M275.143,372.921a2.352,2.352,0,1,1,2.352-2.352A2.354,2.354,0,0,1,275.143,372.921Zm0-3.234a.882.882,0,1,0,.882.882A.883.883,0,0,0,275.143,369.688Z"
                        transform="translate(-272.791 -368.218)" fill="#ff7642" />
                </g>
            </g>
        </g>
        <g id="XMLID_3498_" transform="translate(65.211 31.829)">
            <path id="XMLID_4279_"
                d="M391.094,434.659a.736.736,0,1,1,.519-.215A.74.74,0,0,1,391.094,434.659Z"
                transform="translate(-390.359 -433.189)" fill="#ff7642" />
        </g>
    </g>
</svg>
