<svg xmlns="http://www.w3.org/2000/svg" width="37.964" height="35.558" viewBox="0 0 37.964 35.558">
  <g id="discount-tag" transform="translate(0 -0.001)">
    <path id="Path_6" data-name="Path 6" d="M127.483,250.761a.741.741,0,1,1-.741-.741A.742.742,0,0,1,127.483,250.761Zm0,0" transform="translate(-116.658 -231.481)" fill="#ff7642"/>
    <path id="Path_7" data-name="Path 7" d="M2.549,21.723c1.018,1.124.976,2.022.906,3.508-.021.446-.045.951-.036,1.5.043,2.648,1.985,3.088,3.544,3.442,1.327.3,2.58.586,3.332,1.9,1.287,2.284,2.381,4.107,4.914,3.295.86-.276,1.475-.537,1.97-.747a4.187,4.187,0,0,1,1.8-.489,4.188,4.188,0,0,1,1.8.489c.495.21,1.11.471,1.97.747a2.885,2.885,0,0,0,3.007-.557,11.033,11.033,0,0,0,1.907-2.738c.752-1.311,2.005-1.6,3.332-1.9,1.56-.354,3.5-.794,3.544-3.442.009-.547-.014-1.052-.035-1.5-.07-1.486-.112-2.384.906-3.508,1.545-1.706,2.551-2.77,2.549-3.947,0-1.256-1.235-2.5-2.549-3.945-1.018-1.125-.976-2.022-.906-3.509.021-.446.045-.951.035-1.5C34.5,6.177,32.56,5.736,31,5.382c-1.327-.3-2.58-.586-3.333-1.9A11.107,11.107,0,0,0,25.76.747,2.887,2.887,0,0,0,22.754.191c-.861.276-1.477.537-1.972.747a4.191,4.191,0,0,1-1.8.489,4.19,4.19,0,0,1-1.8-.489c-.495-.21-1.11-.471-1.971-.747A2.885,2.885,0,0,0,12.2.747,11.045,11.045,0,0,0,10.3,3.485c-.752,1.31-2.054,1.6-3.433,1.9C5.249,5.735,3.24,6.175,3.2,8.824a16.292,16.292,0,0,0,.091,1.788c.123,1.363.2,2.185-.738,3.218C1.027,15.51,0,16.6,0,17.774c0,1.248,1.2,2.457,2.549,3.949Zm1.1-6.9c1.371-1.515,1.247-2.89,1.116-4.347a14.925,14.925,0,0,1-.085-1.631c.023-1.416.783-1.642,2.5-2.017,1.481-.324,3.324-.727,4.4-2.608,1.09-1.772,1.58-3.132,3.175-2.62.8.255,1.353.492,1.845.7a5.569,5.569,0,0,0,2.38.606A5.57,5.57,0,0,0,21.361,2.3c.492-.209,1.048-.445,1.846-.7,1.592-.51,2.068.822,3.174,2.62C27.457,6.1,29.24,6.5,30.672,6.828c1.682.382,2.365.594,2.389,2.02.008.5-.013.96-.034,1.4-.072,1.54-.14,2.995,1.288,4.573,1.094,1.208,2.167,2.346,2.165,2.948v0c0,.651-1.28,1.972-2.165,2.95-1.429,1.578-1.36,3.033-1.288,4.573.021.445.042.9.034,1.4-.023,1.427-.707,1.639-2.389,2.02-1.432.325-3.215.73-4.29,2.605l-.1.174c-1.254,2.191-1.769,2.864-3.074,2.446-.8-.255-1.353-.492-1.844-.7a5.566,5.566,0,0,0-2.381-.607,5.562,5.562,0,0,0-2.382.607c-.491.208-1.048.444-1.843.7-1.588.509-2.062-.812-3.174-2.621-1.076-1.875-2.858-2.28-4.291-2.6-1.683-.382-2.366-.593-2.39-2.02-.008-.5.014-.959.034-1.4.073-1.541.141-3-1.288-4.574-1-1.1-2.167-2.328-2.165-2.953,0-.649,1.282-1.973,2.165-2.949Zm0,0" transform="translate(0 0)" fill="#ff7642"/>
    <path id="Path_8" data-name="Path 8" d="M188.224,170.02a2.224,2.224,0,1,0,2.224,2.224A2.227,2.227,0,0,0,188.224,170.02Zm0,2.966a.741.741,0,1,1,.742-.741A.742.742,0,0,1,188.224,172.986Zm0,0" transform="translate(-172.209 -157.412)" fill="#ff7642"/>
    <path id="Path_9" data-name="Path 9" d="M266,252.244a2.224,2.224,0,1,0,2.224-2.224A2.227,2.227,0,0,0,266,252.244Zm2.966,0a.741.741,0,1,1-.742-.741A.742.742,0,0,1,268.966,252.244Zm0,0" transform="translate(-246.277 -231.481)" fill="#ff7642"/>
    <path id="Path_10" data-name="Path 10" d="M206.33,180.273a.742.742,0,0,0,1.028-.206l5.932-8.9a.741.741,0,0,0-1.234-.823l-5.932,8.9A.742.742,0,0,0,206.33,180.273Zm0,0" transform="translate(-190.726 -157.41)" fill="#ff7642"/>
    <path id="Path_11" data-name="Path 11" d="M98.605,95.23A12.605,12.605,0,1,0,86,82.625,12.619,12.619,0,0,0,98.605,95.23Zm0-23.727A11.122,11.122,0,1,1,87.483,82.625,11.135,11.135,0,0,1,98.605,71.5Zm0,0" transform="translate(-79.624 -64.827)" fill="#ff7642"/>
    <path id="Path_12" data-name="Path 12" d="M135.816,113.161a.741.741,0,0,0-.246-1.462,9.638,9.638,0,0,0-7.9,7.9.741.741,0,1,0,1.462.246,8.154,8.154,0,0,1,6.683-6.685Zm0,0" transform="translate(-118.194 -103.406)" fill="#ff7642"/>
  </g>
</svg>
