<svg xmlns="http://www.w3.org/2000/svg" width="36.86" height="36.87" viewBox="0 0 36.86 36.87">
  <g id="XMLID_1750_" transform="translate(-0.073)">
    <g id="XMLID_1492_" transform="translate(0.073)">
      <path id="XMLID_1703_" d="M36.933,5.1A5.1,5.1,0,0,0,26.847,4.025H19.772a3.577,3.577,0,0,0-2.546,1.054L1.128,21.174a3.6,3.6,0,0,0,0,5.092l9.55,9.55a3.6,3.6,0,0,0,5.092,0l5.57-5.57a.72.72,0,0,0-1.018-1.018l-5.57,5.57a2.163,2.163,0,0,1-3.055,0l-9.55-9.55a2.16,2.16,0,0,1,0-3.055L18.244,6.1a2.146,2.146,0,0,1,1.527-.633h6.974a5.062,5.062,0,0,0,1.48,3.242.72.72,0,0,0,1.018-1.018,3.633,3.633,0,0,1-1.054-2.224h1.133a2.163,2.163,0,0,1,2.16,2.16v9.546A2.146,2.146,0,0,1,30.85,18.7L24.9,24.645a.72.72,0,0,0,1.018,1.018l5.947-5.947a3.577,3.577,0,0,0,1.055-2.546V10.084A5.082,5.082,0,0,0,36.933,5.1Zm-4.01,3.5V7.625a3.6,3.6,0,0,0-3.6-3.6h-.989A3.661,3.661,0,1,1,32.922,8.6Z" transform="translate(-0.073)" fill="#ff7642"/>
      <path id="XMLID_1704_" d="M99.8,313.012a.72.72,0,0,0-1.018-1.018l-1.733,1.733a.72.72,0,0,0,0,1.018l4.277,4.277A.72.72,0,0,0,102.342,318l-1.67-1.67,1.087-1.087a.72.72,0,1,0-1.018-1.018l-1.087,1.087-1.08-1.08Z" transform="translate(-89.867 -289.332)" fill="#ff7642"/>
      <path id="XMLID_1745_" d="M161.811,260.433a.72.72,0,0,0,.045-1.439l-2.381-.152a2.408,2.408,0,0,0,.326-1.138,2.231,2.231,0,0,0-.648-1.666,2.341,2.341,0,0,0-3.3.063l-1.137,1.137h0a.72.72,0,0,0,0,1.018l4.277,4.277a.72.72,0,1,0,1.018-1.018l-1.278-1.278,3.036.194h.047Zm-4.943-3.314a.912.912,0,0,1,1.268-.063.8.8,0,0,1,.227.6.994.994,0,0,1-.29.665c-.144.144-.393.4-.62.625l-.607-.6-.6-.6Z" transform="translate(-143.38 -236.996)" fill="#ff7642"/>
      <path id="XMLID_1746_" d="M282.45,138.028l1.8-1.8a.72.72,0,0,0-1.018-1.018l-1.293,1.293-1.12-1.12,1.16-1.16a.72.72,0,0,0-1.018-1.018l-1.16,1.16-1.12-1.12,1.293-1.293a.72.72,0,0,0-1.018-1.018l-1.8,1.8a.72.72,0,0,0,0,1.018l2.138,2.138h0l2.138,2.138a.72.72,0,0,0,1.018,0Z" transform="translate(-257.006 -121.306)" fill="#ff7642"/>
      <path id="XMLID_1747_" d="M223.945,196.237a.72.72,0,0,0,.509-.211l1.8-1.8a.72.72,0,1,0-1.018-1.018l-1.293,1.293-1.12-1.12,1.16-1.16a.72.72,0,1,0-1.018-1.018l-1.16,1.16-1.12-1.12,1.293-1.293a.72.72,0,0,0-1.018-1.018l-1.8,1.8a.72.72,0,0,0,0,1.018l4.277,4.277A.72.72,0,0,0,223.945,196.237Z" transform="translate(-203.187 -175.128)" fill="#ff7642"/>
      <path id="XMLID_1760_" d="M310.859,371.139a.72.72,0,1,0,.509.211A.725.725,0,0,0,310.859,371.139Z" transform="translate(-287.811 -344.413)" fill="#ff7642"/>
    </g>
  </g>
</svg>
